<svg xmlns="http://www.w3.org/2000/svg" width="98.797" height="32.002" viewBox="0 0 98.797 32.002">
  <g id="Репортаж_-_иконка" data-name="Репортаж - иконка" transform="translate(0 -18.622)" opacity="0.9">
    <path id="REC" d="M11.362-24.113h2.129a8.146,8.146,0,0,0,4.62-1.043,3.724,3.724,0,0,0,1.49-3.279,3.406,3.406,0,0,0-1.522-3.151,9.238,9.238,0,0,0-4.716-.937h-2Zm0,5.366V-6.8h-6.6V-37.931h9.07q6.345,0,9.39,2.31t3.045,7.016a8.259,8.259,0,0,1-1.512,4.887,10,10,0,0,1-4.28,3.354Q27.5-9.868,29.631-6.8H22.306L14.875-18.747ZM51.477-6.8H33.549V-37.931H51.477v5.408H40.149v6.835h10.54v5.408H40.149v8.027H51.477ZM71.193-32.885a6.726,6.726,0,0,0-5.77,2.8q-2.044,2.8-2.044,7.8,0,10.412,7.814,10.412a24.7,24.7,0,0,0,7.942-1.639v5.536a22.056,22.056,0,0,1-8.559,1.6q-6.792,0-10.391-4.12t-3.6-11.828a19.314,19.314,0,0,1,1.767-8.506,12.773,12.773,0,0,1,5.078-5.6,15.023,15.023,0,0,1,7.761-1.948,20.947,20.947,0,0,1,9.113,2.193L78.177-30.82a35.244,35.244,0,0,0-3.513-1.448A10.481,10.481,0,0,0,71.193-32.885Z" transform="translate(18.491 57)" fill="#313131"/>
    <path id="Эллипс_31" data-name="Эллипс 31" d="M8.228,0A8.228,8.228,0,1,1,0,8.228,8.228,8.228,0,0,1,8.228,0Z" transform="translate(0 26.229)" fill="#313131"/>
  </g>
</svg>
