<svg xmlns="http://www.w3.org/2000/svg" width="75.486" height="75.486" viewBox="0 0 75.486 75.486">
  <g id="Дизайн_сингла" data-name="Дизайн сингла" transform="translate(-18.834 148.913)" opacity="0.9">
    <path id="Контур_256" data-name="Контур 256" d="M55.983-123.734a3.365,3.365,0,0,0-2.233,2.427l22.806-4.777-.005-.112a2.055,2.055,0,0,0-.721-1.605,1.373,1.373,0,0,0-.828-.274H74.99a1.883,1.883,0,0,0-.41.048Z" transform="translate(-5.797 -3.46)" fill="#3c3c3c"/>
    <path id="Контур_257" data-name="Контур 257" d="M76.738-97.355A6.461,6.461,0,0,1,70.3-90.912h0a6.45,6.45,0,0,1-6.443-6.444,6.446,6.446,0,0,1,5.988-6.419v-.023h4.168v-20.049l-22.956,4.807v28.16a6.462,6.462,0,0,1-6.443,6.44h0a6.449,6.449,0,0,1-6.443-6.442A6.446,6.446,0,0,1,44.154-97.3v-.018h.367c.03,0,.058-.005.088-.005h.455v.005h3.259v-21.146l-.03.006.03-1.69v-.451h.008l.005-.294a6.176,6.176,0,0,1,4.421-6.035l18.623-4.3a4.155,4.155,0,0,1,3.544.735,4.743,4.743,0,0,1,1.769,3.675l.03.837h.015v.4l.042,1.159-.042.009Z" transform="translate(-3.21 -2.915)" fill="#3c3c3c"/>
    <path id="Контур_258" data-name="Контур 258" d="M41.44-83.565a3.691,3.691,0,0,0,1.088,2.625,3.687,3.687,0,0,0,2.624,1.087h0a3.717,3.717,0,0,0,3.712-3.713v-3.709H45.109A3.716,3.716,0,0,0,41.44-83.565Z" transform="translate(-3.753 -10.234)" fill="#3c3c3c"/>
    <path id="Контур_259" data-name="Контур 259" d="M72.24-91.326a3.718,3.718,0,0,0,3.713,3.714,3.717,3.717,0,0,0,3.713-3.713v-3.714H75.953A3.717,3.717,0,0,0,72.24-91.326Z" transform="translate(-8.867 -8.945)" fill="#3c3c3c"/>
    <path id="Контур_260" data-name="Контур 260" d="M30.193-67.926a5.912,5.912,0,0,0-4.7,1.676,1.214,1.214,0,0,1-1.715.183c-.791-.646-.3-1.484-.04-1.934l.2-.345a9.035,9.035,0,0,0,.309-7.035,10.752,10.752,0,0,0-5.414-6.155v11.478a7.84,7.84,0,0,0,7.817,7.817H37.693C35.15-65.663,32.575-67.623,30.193-67.926Z" transform="translate(0 -11.187)" fill="#3c3c3c"/>
    <path id="Контур_261" data-name="Контур 261" d="M99.732-75.416a9.038,9.038,0,0,0,.309,7.035l.2.344c.262.45.751,1.288-.04,1.935a1.215,1.215,0,0,1-1.715-.183,5.916,5.916,0,0,0-4.7-1.676c-2.383.3-4.956,2.263-7.5,5.686H97.7a7.84,7.84,0,0,0,7.817-7.817V-81.749A10.8,10.8,0,0,0,99.732-75.416Z" transform="translate(-11.199 -11.151)" fill="#3c3c3c"/>
    <path id="Контур_262" data-name="Контур 262" d="M24.248-135.1a9.035,9.035,0,0,0-.309-7.035l-.2-.345c-.262-.45-.75-1.288.041-1.934a1.216,1.216,0,0,1,1.715.183,5.912,5.912,0,0,0,4.7,1.677c2.535-.324,5.286-2.519,7.986-6.357H26.651a7.84,7.84,0,0,0-7.817,7.817v12.149A10.756,10.756,0,0,0,24.248-135.1Z" fill="#3c3c3c"/>
    <path id="Контур_263" data-name="Контур 263" d="M93.69-142.556a5.905,5.905,0,0,0,4.7-1.676,1.216,1.216,0,0,1,1.715-.184c.791.646.3,1.484.04,1.935l-.2.344a9.038,9.038,0,0,0-.309,7.035,10.8,10.8,0,0,0,5.787,6.334V-141.1a7.84,7.84,0,0,0-7.817-7.817h-11.9C88.4-145.074,91.156-142.879,93.69-142.556Z" transform="translate(-11.103)" fill="#3c3c3c"/>
  </g>
</svg>
