<svg xmlns="http://www.w3.org/2000/svg" width="71.782" height="71.782" viewBox="0 0 71.782 71.782">
  <path id="Стикер" d="M61.891,12A35.891,35.891,0,1,0,97.782,47.891,35.891,35.891,0,0,0,61.891,12Zm4.568,20.229a1.958,1.958,0,1,1,3.915,0V43.976a1.958,1.958,0,1,1-3.915,0Zm-13.051,0a1.958,1.958,0,1,1,3.915,0V43.976a1.958,1.958,0,0,1-3.915,0Zm22.187,25.45c-4.011,4.778-8.06,10.564-13.238,10.564q-.241,0-.482-.008C56.4,68.063,52.2,61.817,48.187,56.374c-.642-.871-.984-1.751-.624-2.193A2.118,2.118,0,0,1,50.3,54.6c3.289,4.456,7.442,6.982,11.7,7.116,4.116.12,8.235-2,11.583-5.985a2.122,2.122,0,0,1,2.758-.24C76.679,55.954,76.29,56.851,75.595,57.679Z" transform="translate(-26 -12)" fill="#313131" opacity="0.9"/>
</svg>
