<svg xmlns="http://www.w3.org/2000/svg" viewBox="0 0 421.72 254.63"><defs><style>.d784a39c-2893-4ddd-98ed-6f20a3e70dc1{fill:#fff;}</style></defs><title>Logo_SI</title><g id="e9b8a0c9-d4af-4e73-89a9-34621f9c5ffc" data-name="Слой 2"><g id="1865e950-af48-4fda-a502-cf2a387b9ca1" data-name="Слой 2"><path class="d784a39c-2893-4ddd-98ed-6f20a3e70dc1" d="M234,142.43h45.78c2.08-4.1,4.2-8.58,6.37-13.55L341.34,2.57H316.22a20.37,20.37,0,0,0-18.94,12.88L265.47,96l-2.19,6.11L217.91,38.27,204,61.59a21.22,21.22,0,0,0,1.31,23.73l34.54,45.52A45.48,45.48,0,0,1,234,142.43Z"/><path class="d784a39c-2893-4ddd-98ed-6f20a3e70dc1" d="M129.39,142.43V90.64l37,51.79h42.11L168.61,88.32,212.87,2.57H187.42a22.58,22.58,0,0,0-18.16,9.15l-38,74.8a1,1,0,0,1-1.88-.62V51.21H111A19.52,19.52,0,0,0,91.52,70.73v71.7Z"/><path class="d784a39c-2893-4ddd-98ed-6f20a3e70dc1" d="M55.09,142.43C44.37,132.86,39,116.21,39,92.36Q39,63.65,50.7,47.58T83.81,31.52a60.18,60.18,0,0,1,19.91,3.54l1.64.57c11,3.84,22.16-.4,24.61-11.76l2.66-11.54S105,0,83.81,0Q58.27,0,39.28,11.18T10.14,43.31Q0,64.25,0,92.11c0,19.94,3.23,36.65,9.52,50.32Z"/><path class="d784a39c-2893-4ddd-98ed-6f20a3e70dc1" d="M305.79,142.14,356.55,20.49A29.91,29.91,0,0,1,384.16,2.1h37.56V142H387.45l.11-112.13C384.87,40.25,341,142.39,341,142.39Z"/><path class="d784a39c-2893-4ddd-98ed-6f20a3e70dc1" d="M421.72,158.57v19.31H396.8v76.61H373V177.88h-28.6a19.32,19.32,0,0,1,19.31-19.31Z"/><path class="d784a39c-2893-4ddd-98ed-6f20a3e70dc1" d="M334.64,158.57v95.92H309.7V241.94H295.07l3.83-12.56a10.53,10.53,0,0,1,10-7.25h.84l0-41.93c-1.4,5.82-17.57,51.21-26.67,74.29H257.26c.11-.39.23-.78.38-1.17l29.7-80.69c3.31-8.52,11.07-14.06,19.67-14.06Z"/><path class="d784a39c-2893-4ddd-98ed-6f20a3e70dc1" d="M62.7,158.57a16.28,16.28,0,0,0-12.43,5.77,11.7,11.7,0,0,1,10.1-5.77Z"/><path class="d784a39c-2893-4ddd-98ed-6f20a3e70dc1" d="M73.61,158.57v96.06h-25V219.38L35.5,254.49H0v-76.9a19,19,0,0,1,19-19h5.92l-.08,74.29c1.21-5,13.44-39.59,22.62-63.78A16.28,16.28,0,0,1,62.7,158.57Z"/><path class="d784a39c-2893-4ddd-98ed-6f20a3e70dc1" d="M239.3,238.89V158.57H211.67c-8.6,0-16.36,5.54-19.67,14.06l-24.39,66.26h-3.94A11.78,11.78,0,0,0,152.5,247l-2.5,7.52h99.57v-15.6Zm-45.56,0c8.88-23.68,19.58-54,20.7-58.69l-.06,58.69Z"/><path class="d784a39c-2893-4ddd-98ed-6f20a3e70dc1" d="M149,227.09c-.14,12.28-10.54,23.08-15.36,27.4H87.24l.58-5a12.35,12.35,0,0,1,11.77-8.07h13.65c7.15-.51,12.28-9.42,12.28-14.58,0-6.66-1.26-13.71-15.91-14.9H95.75l2.63-7.51a12.07,12.07,0,0,1,6.94-7.15c6.55-3,16.78-19.47,16.78-19.47l-35.59.07-.23-9a9.75,9.75,0,0,1,9.57-10.26l53.41,0-.45,16.12c-4.24,2.61-20.5,24.35-20.5,24.35S149.27,203.31,149,227.09Z"/></g></g></svg>