<svg xmlns="http://www.w3.org/2000/svg" xmlns:xlink="http://www.w3.org/1999/xlink" width="2131.011" height="927.151" viewBox="0 0 2131.011 927.151">
  <defs>
    <filter id="Контур_174" x="24.952" y="0" width="2099.887" height="883.682" filterUnits="userSpaceOnUse">
      <feOffset dy="3" input="SourceAlpha"/>
      <feGaussianBlur stdDeviation="3" result="blur"/>
      <feFlood flood-opacity="0.161"/>
      <feComposite operator="in" in2="blur"/>
      <feComposite in="SourceGraphic"/>
    </filter>
    <filter id="Контур_175" x="0" y="0.301" width="2131.011" height="926.851" filterUnits="userSpaceOnUse">
      <feOffset dy="3" input="SourceAlpha"/>
      <feGaussianBlur stdDeviation="3" result="blur-2"/>
      <feFlood flood-opacity="0.161"/>
      <feComposite operator="in" in2="blur-2"/>
      <feComposite in="SourceGraphic"/>
    </filter>
  </defs>
  <g id="BG_lines_1" transform="translate(111.204 49.225)">
    <g transform="matrix(1, 0, 0, 1, -111.2, -49.23)" filter="url(#Контур_174)">
      <path id="Контур_174-2" data-name="Контур 174" d="M-5.885,230.633S280.254-6.986,472.775,129.378,643.655,467.085,936.11,354.061s474.276-206.328,599.242-144.079S1743,271.2,1854.84,201.8,2043.278,7.811,2043.278,7.811" transform="translate(38.52 493.45) rotate(-14)" fill="none" stroke="#fff" stroke-width="2" opacity="0.3"/>
    </g>
    <g transform="matrix(1, 0, 0, 1, -111.2, -49.23)" filter="url(#Контур_175)">
      <path id="Контур_175-2" data-name="Контур 175" d="M.969,254.376S284.252-7.806,479.557,142.3,652.964,514.153,949.565,389.56s480.992-227.425,607.758-158.919,210.625,67.342,324.047-9.136S2072.446,7.781,2072.446,7.781" transform="translate(6.96 500.81) rotate(-14)" fill="none" stroke="#fff" stroke-width="2" opacity="0.4"/>
    </g>
  </g>
</svg>
