<svg xmlns="http://www.w3.org/2000/svg" xmlns:xlink="http://www.w3.org/1999/xlink" width="1941.206" height="1014.175" viewBox="0 0 1941.206 1014.175">
  <defs>
    <filter id="Контур_192" x="0" y="543.008" width="1939.538" height="471.167" filterUnits="userSpaceOnUse">
      <feOffset dy="3" input="SourceAlpha"/>
      <feGaussianBlur stdDeviation="3" result="blur"/>
      <feFlood flood-opacity="0.161"/>
      <feComposite operator="in" in2="blur"/>
      <feComposite in="SourceGraphic"/>
    </filter>
    <filter id="Контур_193" x="1.667" y="0" width="1939.538" height="471.171" filterUnits="userSpaceOnUse">
      <feOffset dy="3" input="SourceAlpha"/>
      <feGaussianBlur stdDeviation="3" result="blur-2"/>
      <feFlood flood-opacity="0.161"/>
      <feComposite operator="in" in2="blur-2"/>
      <feComposite in="SourceGraphic"/>
    </filter>
  </defs>
  <g id="BG_lines_6" transform="translate(10.713 -5431.765)">
    <g transform="matrix(1, 0, 0, 1, -10.71, 5431.77)" filter="url(#Контур_192)">
      <path id="Контур_192-2" data-name="Контур 192" d="M-1491,6017s334.65,340.494,613.6,262.647,48.654-217.322-43.789-116.77-89.2,257.868,76.225,249.759,566.012-418.427,1274.742-450.863" transform="translate(1500.71 -5411.77)" fill="none" stroke="#fff" stroke-width="2" opacity="0.2"/>
    </g>
    <g transform="matrix(1, 0, 0, 1, -10.71, 5431.77)" filter="url(#Контур_193)">
      <path id="Контур_193-2" data-name="Контур 193" d="M429.78,6357.71s-334.65-340.494-613.6-262.647-48.654,217.322,43.789,116.77,89.2-257.868-76.225-249.759S-782.269,6380.5-1491,6412.938" transform="translate(1501.71 -5954.77)" fill="none" stroke="#fff" stroke-width="2" opacity="0.2"/>
    </g>
  </g>
</svg>
