<svg xmlns="http://www.w3.org/2000/svg" xmlns:xlink="http://www.w3.org/1999/xlink" width="666" height="557" viewBox="0 0 666 557">
  <defs>
    <filter id="Прямоугольник_217" x="7" y="5" width="652" height="216" filterUnits="userSpaceOnUse">
      <feOffset dy="3" input="SourceAlpha"/>
      <feGaussianBlur stdDeviation="5" result="blur"/>
      <feFlood flood-color="#333" flood-opacity="0.302"/>
      <feComposite operator="in" in2="blur"/>
      <feComposite in="SourceGraphic"/>
    </filter>
    <filter id="Прямоугольник_219" x="29" y="170" width="608" height="387" filterUnits="userSpaceOnUse">
      <feOffset dy="3" input="SourceAlpha"/>
      <feGaussianBlur stdDeviation="5" result="blur-2"/>
      <feFlood flood-color="#333" flood-opacity="0.239"/>
      <feComposite operator="in" in2="blur-2"/>
      <feComposite in="SourceGraphic"/>
    </filter>
    <filter id="Прямоугольник_230" x="0" y="0" width="666" height="207" filterUnits="userSpaceOnUse">
      <feOffset dy="3" input="SourceAlpha"/>
      <feGaussianBlur stdDeviation="3" result="blur-3"/>
      <feFlood flood-color="#333" flood-opacity="0.302"/>
      <feComposite operator="in" in2="blur-3"/>
      <feComposite in="SourceGraphic"/>
    </filter>
  </defs>
  <g id="Компонент_23_1" data-name="Компонент 23 – 1" transform="translate(9 6)">
    <rect id="Прямоугольник_231" data-name="Прямоугольник 231" width="116" height="116" rx="20" transform="translate(48 29)" fill="#c3fe93"/>
    <g transform="matrix(1, 0, 0, 1, -9, -6)" filter="url(#Прямоугольник_217)">
      <g id="Прямоугольник_217-2" data-name="Прямоугольник 217" transform="translate(22 17)" fill="#fff" stroke="#fff" stroke-width="1" opacity="0.74">
        <rect width="622" height="186" rx="20" stroke="none"/>
        <rect x="0.5" y="0.5" width="621" height="185" rx="19.5" fill="none"/>
      </g>
    </g>
    <g transform="matrix(1, 0, 0, 1, -9, -6)" filter="url(#Прямоугольник_219)">
      <g id="Прямоугольник_219-2" data-name="Прямоугольник 219" transform="translate(44 182)" fill="none" stroke="#fff" stroke-width="3" opacity="0.8">
        <rect width="578" height="357" rx="20" stroke="none"/>
        <rect x="1.5" y="1.5" width="575" height="354" rx="18.5" fill="none"/>
      </g>
    </g>
    <g id="Сгруппировать_124" data-name="Сгруппировать 124" transform="translate(1008.069 634.5)">
      <g transform="matrix(1, 0, 0, 1, -1017.07, -640.5)" filter="url(#Прямоугольник_230)">
        <g id="Прямоугольник_230-2" data-name="Прямоугольник 230" transform="translate(9 6)" fill="none" stroke="#c3fe93" stroke-width="4">
          <rect width="648" height="189" rx="25" stroke="none"/>
          <rect x="2" y="2" width="644" height="185" rx="23" fill="none"/>
        </g>
      </g>
    </g>
  </g>
</svg>
