<svg xmlns="http://www.w3.org/2000/svg" viewBox="0 0 200 120"><defs><style>.f0d856e4-9fe0-4178-a647-6856f18763d2{fill:#3bac92;}</style></defs><title>SI_Logo</title><g id="896150a0-9408-4db4-a7cd-1a06f3cf0cdf" data-name="Слой 2"><g id="24e98c99-ec2b-4584-a90c-d1e414964c48" data-name="Слой 2"><path class="f0d856e4-9fe0-4178-a647-6856f18763d2" d="M111,67.12h21.71c1-1.93,2-4,3-6.38L161.88.27H150c-4,0-7.53,3.35-9,7l-15.08,38-1,2.88L103.34,18,96.73,29a10,10,0,0,0,.62,11.19l16.38,21.45A21.19,21.19,0,0,1,111,67.12Z"/><path class="f0d856e4-9fe0-4178-a647-6856f18763d2" d="M61.37,67.12V42.72l17.56,24.4h20L80,41.62,101,.27H88.89c-3.4,0-6.6,2.54-8.62,5.25l-18,35.25a.49.49,0,0,1-.89-.29V24.14H52.66a9.22,9.22,0,0,0-9.25,9.19V67.12Z"/><path class="f0d856e4-9fe0-4178-a647-6856f18763d2" d="M26.13,67.12q-7.64-6.77-7.65-23.6Q18.48,30,24,22.42t15.7-7.57a28.81,28.81,0,0,1,9.45,1.67l.78.27c5.2,1.81,10.51-.19,11.67-5.54L62.9,5.81S49.8,0,39.74,0Q27.64,0,18.63,5.27A34.62,34.62,0,0,0,4.81,20.41Q0,30.28,0,43.41C0,52.8,1.53,60.68,4.51,67.12Z"/><path class="f0d856e4-9fe0-4178-a647-6856f18763d2" d="M145,67,169.09,9.66c2.21-5.25,7.37-9.61,13.1-9.61H200V66.9H183.75l.05-52.84c-1.28,4.91-22.06,53.05-22.06,53.05Z"/><path class="f0d856e4-9fe0-4178-a647-6856f18763d2" d="M200,74.73v9.1H188.18v36.1H176.87V83.83H163.31a9.12,9.12,0,0,1,9.15-9.1Z"/><path class="f0d856e4-9fe0-4178-a647-6856f18763d2" d="M158.7,74.73v45.2H146.87V114h-6.94l1.81-5.92a5,5,0,0,1,4.74-3.42h.4l0-19.76c-.66,2.75-8.33,24.14-12.65,35H122c.06-.18.11-.36.18-.55l14.09-38a10.12,10.12,0,0,1,9.33-6.63Z"/><path class="f0d856e4-9fe0-4178-a647-6856f18763d2" d="M29.74,74.73a7.75,7.75,0,0,0-5.9,2.72,5.56,5.56,0,0,1,4.79-2.72Z"/><path class="f0d856e4-9fe0-4178-a647-6856f18763d2" d="M34.91,74.73V120H23.06V103.39l-6.22,16.54H0V83.69a9,9,0,0,1,9-9h2.81l0,35c.57-2.37,6.37-18.66,10.73-30.06a7.56,7.56,0,0,1,1.32-2.23,7.75,7.75,0,0,1,5.9-2.72Z"/><path class="f0d856e4-9fe0-4178-a647-6856f18763d2" d="M113.49,112.58V74.73H100.38a10.11,10.11,0,0,0-9.32,6.63L79.49,112.58H77.62a5.6,5.6,0,0,0-5.3,3.81l-1.18,3.54h47.22v-7.35Zm-21.61,0c4.21-11.16,9.29-25.45,9.82-27.66l0,27.66Z"/><path class="f0d856e4-9fe0-4178-a647-6856f18763d2" d="M70.67,107c-.07,5.79-5,10.88-7.29,12.92h-22l.27-2.37a5.86,5.86,0,0,1,5.58-3.8H53.7c3.39-.24,5.83-4.44,5.83-6.87,0-3.14-.6-6.46-7.55-7H45.41l1.25-3.54A5.72,5.72,0,0,1,50,93c3.11-1.39,7.95-9.17,7.95-9.17L41,83.82l-.11-4.24a4.61,4.61,0,0,1,4.54-4.83l25.33,0-.22,7.6c-2,1.23-9.72,11.47-9.72,11.47A12.84,12.84,0,0,1,70.67,107Z"/></g></g></svg>