<?xml version="1.0" encoding="utf-8"?>
<!-- Generator: Adobe Illustrator 25.4.1, SVG Export Plug-In . SVG Version: 6.00 Build 0)  -->
<svg version="1.1" id="Слой_1" xmlns="http://www.w3.org/2000/svg" xmlns:xlink="http://www.w3.org/1999/xlink" x="0px" y="0px"
	 viewBox="0 0 39.4 85.4" style="enable-background:new 0 0 39.4 85.4;" xml:space="preserve">
<style type="text/css">
	.st0{opacity:0.9;}
	.st1{fill:#3BAC92;}
</style>
<g id="Перо" transform="translate(-120.306 -110.221) rotate(8)" class="st0">
	<path id="Контур_228" class="st1" d="M150.4,148.3c0-0.5,0-1.1,0-1.6C150.4,147.2,150.4,147.7,150.4,148.3z"/>
	<path id="Контур_229" class="st1" d="M150.5,145.7c0-0.4,0-0.8,0.1-1.2C150.5,144.9,150.5,145.3,150.5,145.7z"/>
	<path id="Контур_230" class="st1" d="M150.4,150.6c0-0.6,0-1.3,0-1.9C150.4,149.3,150.4,150,150.4,150.6z"/>
	<path id="Контур_231" class="st1" d="M150.4,150.8c0-0.1,0-0.1,0-0.2C150.4,150.7,150.4,150.7,150.4,150.8z"/>
	<path id="Контур_232" class="st1" d="M150.4,148.7c0-0.1,0-0.3,0-0.4C150.4,148.4,150.4,148.6,150.4,148.7z"/>
	<path id="Контур_233" class="st1" d="M164,128.8c-2-14.5,10.1-37.6,10.1-37.6C167,92.5,150,113,150,113
		c2.5,4.3,0.4,10.5,0.4,10.5c-2.5-4.3-3.2-4.1-3.2-4.1c-9.1,15-0.1,29.9,3.4,34.7c-0.1-1.1-0.2-2.3-0.2-3.4c0-0.1,0-0.1,0-0.2
		c0-0.6,0-1.3,0-1.9c0-0.1,0-0.3,0-0.4c0-0.5,0-1.1,0-1.6c0-0.3,0-0.6,0-0.9c0-0.4,0-0.8,0.1-1.2c0-0.7,0.1-1.4,0.2-2.1
		c0.2-2.8,0.6-5.6,1.2-8.4c0.6-2.8,1.3-5.5,2.2-8.2c1.8-5.3,4.1-10.5,7-15.4c0-0.1,0.1-0.1,0.1-0.1c0.1,0,0.1,0.1,0.1,0.1
		c0,0,0,0,0,0c-2.6,5-4.6,10.2-6.2,15.6c-0.8,2.7-1.4,5.4-1.8,8.1c-0.5,2.7-0.8,5.5-0.9,8.3c-0.1,2.8-0.1,5.5,0.1,8.3
		c0.1,1.5,0.2,2.9,0.4,4.4c7.7-4.3,10.1-19.2,10.1-19.2c-3.4-0.9-6.6,2.6-6.6,2.6C156.3,132.6,164,128.8,164,128.8z"/>
	<path id="Контур_234" class="st1" d="M150.5,144.5c0-0.7,0.1-1.4,0.2-2.1C150.6,143.1,150.6,143.8,150.5,144.5z"/>
	<path id="Контур_235" class="st1" d="M150.4,146.6c0-0.3,0-0.6,0-0.9C150.5,146,150.4,146.3,150.4,146.6z"/>
	<path id="Контур_236" class="st1" d="M151.3,159.5c0.5,2.8,1.3,5.6,2.2,8.2c0.9,2.7,2.1,5.3,3.6,7.7c0,0,0.1,0.1,0.1,0l0,0
		c0.1,0,0.1-0.1,0.1-0.1v0c-1.5-4.9-2.8-10-3.8-15c0,0-0.7-5-0.7-5c-0.4,0.1-1.6,1-2.3-1.1L151.3,159.5z"/>
</g>
</svg>
