<svg xmlns="http://www.w3.org/2000/svg" width="39.403" height="85.412" viewBox="0 0 39.403 85.412">
  <g id="Перо" transform="translate(-120.306 -110.221) rotate(8)" opacity="0.9">
    <path id="Контур_228" data-name="Контур 228" d="M153.312,171.044c0-.546.01-1.091.029-1.637C153.322,169.953,153.316,170.5,153.312,171.044Z" transform="translate(-2.913 -22.788)" fill="#313131"/>
    <path id="Контур_229" data-name="Контур 229" d="M153.416,167.669c.02-.4.035-.807.062-1.209C153.451,166.863,153.436,167.266,153.416,167.669Z" transform="translate(-2.943 -21.93)" fill="#313131"/>
    <path id="Контур_230" data-name="Контур 230" d="M153.335,174.256c-.02-.638-.032-1.276-.032-1.914C153.3,172.98,153.315,173.618,153.335,174.256Z" transform="translate(-2.91 -23.643)" fill="#313131"/>
    <path id="Контур_231" data-name="Контур 231" d="M153.351,175.2c0-.052,0-.1,0-.158C153.349,175.1,153.349,175.148,153.351,175.2Z" transform="translate(-2.923 -24.429)" fill="#313131"/>
    <path id="Контур_232" data-name="Контур 232" d="M153.3,172.16c0-.148.006-.3.006-.444C153.309,171.864,153.3,172.012,153.3,172.16Z" transform="translate(-2.91 -23.461)" fill="#313131"/>
    <path id="Контур_233" data-name="Контур 233" d="M163.975,128.809c-1.981-14.476,10.116-37.646,10.116-37.646-7.107,1.32-24.075,21.859-24.075,21.859,2.5,4.342.4,10.529.4,10.529-2.5-4.342-3.161-4.078-3.161-4.078-9.1,14.972-.068,29.924,3.394,34.726-.1-1.14-.183-2.283-.222-3.428,0-.052,0-.1,0-.158-.02-.638-.032-1.276-.032-1.914,0-.148.006-.3.006-.444,0-.546.01-1.091.029-1.637.01-.293.03-.587.045-.88.02-.4.035-.807.062-1.209q.072-1.049.181-2.1a68.958,68.958,0,0,1,1.229-8.419,73.676,73.676,0,0,1,2.17-8.207A83.811,83.811,0,0,1,161.1,110.43a.106.106,0,1,1,.186.1,83.2,83.2,0,0,0-6.154,15.586,72.459,72.459,0,0,0-1.828,8.148,67.677,67.677,0,0,0-.89,8.283,63.343,63.343,0,0,0,.12,8.307c.1,1.478.245,2.95.414,4.42,7.7-4.289,10.109-19.227,10.109-19.227-3.423-.92-6.579,2.635-6.579,2.635C156.343,132.63,163.975,128.809,163.975,128.809Z" transform="translate(0 0)" fill="#313131"/>
    <path id="Контур_234" data-name="Контур 234" d="M153.5,165.6q.072-1.049.181-2.1Q153.576,164.548,153.5,165.6Z" transform="translate(-2.969 -21.068)" fill="#313131"/>
    <path id="Контур_235" data-name="Контур 235" d="M153.353,169.046c.01-.293.03-.587.045-.88C153.383,168.459,153.363,168.752,153.353,169.046Z" transform="translate(-2.925 -22.427)" fill="#313131"/>
    <path id="Контур_236" data-name="Контур 236" d="M154.355,185.353a56.886,56.886,0,0,0,2.231,8.238,39.021,39.021,0,0,0,3.635,7.692.108.108,0,0,0,.126.043h0a.107.107,0,0,0,.064-.136l0-.007a150.161,150.161,0,0,1-3.778-15.034s-.667-4.966-.67-4.964c-.354.125-1.6,1.014-2.306-1.1Z" transform="translate(-3.012 -25.899)" fill="#313131"/>
  </g>
</svg>
