<?xml version="1.0" encoding="utf-8"?>
<!-- Generator: Adobe Illustrator 25.4.1, SVG Export Plug-In . SVG Version: 6.00 Build 0)  -->
<svg version="1.1" id="Слой_1" xmlns="http://www.w3.org/2000/svg" xmlns:xlink="http://www.w3.org/1999/xlink" x="0px" y="0px"
	 viewBox="0 0 68.4 80.2" style="enable-background:new 0 0 68.4 80.2;" xml:space="preserve">
<style type="text/css">
	.st0{opacity:0.9;}
	.st1{fill:#3BAC92;}
</style>
<g id="ЖЖ" transform="translate(-320.82 152.345)" class="st0">
	<path id="Контур_264" class="st1" d="M331.4-145.6v66.6h47.4v-66.6L331.4-145.6z M348.5-127.1h13.1c0.6,0,1.1,0.5,1.1,1.1
		c0,0.6-0.5,1.1-1.1,1.1h-13.1c-0.6,0-1.1-0.5-1.1-1.1C347.4-126.7,347.9-127.1,348.5-127.1z M367.7-92.9h-25.4
		c-0.6,0-1.1-0.5-1.1-1.1c0-0.6,0.5-1.1,1.1-1.1h25.4c0.6,0,1.1,0.5,1.1,1.1S368.3-92.9,367.7-92.9z M367.7-98.1h-25.4
		c-0.6,0-1.1-0.5-1.1-1.1c0-0.6,0.5-1.1,1.1-1.1h25.4c0.6,0,1.1,0.5,1.1,1.1C368.8-98.6,368.3-98.1,367.7-98.1
		C367.7-98.1,367.7-98.1,367.7-98.1L367.7-98.1z M367.7-103.3h-25.4c-0.6,0-1.1-0.5-1.1-1.1c0-0.6,0.5-1.1,1.1-1.1h25.4
		c0.6,0,1.1,0.5,1.1,1.1c0,0,0,0,0,0C368.8-103.8,368.3-103.3,367.7-103.3C367.7-103.3,367.7-103.3,367.7-103.3L367.7-103.3z
		 M367.7-108.5h-25.4c-0.6,0-1.1-0.5-1.1-1.1c0-0.6,0.5-1.1,1.1-1.1h25.4c0.6,0,1.1,0.5,1.1,1.1C368.8-109,368.3-108.5,367.7-108.5
		C367.7-108.5,367.7-108.5,367.7-108.5L367.7-108.5z M367.7-113.7h-25.4c-0.6,0-1.1-0.5-1.1-1.1s0.5-1.1,1.1-1.1h25.4
		c0.6,0,1.1,0.5,1.1,1.1C368.8-114.2,368.3-113.7,367.7-113.7C367.7-113.7,367.7-113.7,367.7-113.7L367.7-113.7z"/>
	<path id="Контур_265" class="st1" d="M380.9-112.8v28.5l8.4-2.7L380.9-112.8z"/>
	<path id="Контур_266" class="st1" d="M369.5-147.7l-1.5-4.7l-16,4.7H369.5z"/>
	<path id="Контур_267" class="st1" d="M340.6-76.8l1.5,4.7l14.3-4.7H340.6z"/>
	<path id="Контур_268" class="st1" d="M329.2-140.3l-8.4,2.7l8.4,25.8V-140.3z"/>
</g>
</svg>
