<svg xmlns="http://www.w3.org/2000/svg" width="68.444" height="80.176" viewBox="0 0 68.444 80.176">
  <g id="ЖЖ" transform="translate(-320.82 152.345)" opacity="0.9">
    <path id="Контур_264" data-name="Контур 264" d="M333.445-144.217V-77.6h47.377v-66.613Zm17.133,18.424h13.11a1.064,1.064,0,0,1,1.063,1.063,1.063,1.063,0,0,1-1.063,1.063h-13.11a1.063,1.063,0,0,1-1.063-1.063A1.064,1.064,0,0,1,350.578-125.793ZM369.83-91.541H344.437a1.064,1.064,0,0,1-1.063-1.063,1.063,1.063,0,0,1,1.063-1.063H369.83a1.063,1.063,0,0,1,1.063,1.063A1.063,1.063,0,0,1,369.83-91.541Zm0-5.2H344.437a1.063,1.063,0,0,1-1.063-1.063,1.064,1.064,0,0,1,1.063-1.063H369.83a1.063,1.063,0,0,1,1.063,1.063A1.063,1.063,0,0,1,369.83-96.738Zm0-5.2H344.437A1.064,1.064,0,0,1,343.374-103a1.063,1.063,0,0,1,1.063-1.063H369.83A1.063,1.063,0,0,1,370.893-103,1.063,1.063,0,0,1,369.83-101.935Zm0-5.2H344.437a1.063,1.063,0,0,1-1.063-1.063,1.064,1.064,0,0,1,1.063-1.063H369.83a1.063,1.063,0,0,1,1.063,1.063A1.063,1.063,0,0,1,369.83-107.132Zm0-5.2H344.437a1.063,1.063,0,0,1-1.063-1.063,1.063,1.063,0,0,1,1.063-1.063H369.83a1.063,1.063,0,0,1,1.063,1.063A1.063,1.063,0,0,1,369.83-112.328Z" transform="translate(-2.091 -1.346)" fill="#3c3c3c"/>
    <path id="Контур_265" data-name="Контур 265" d="M392.776-104.941V-76.4l8.408-2.74Z" transform="translate(-11.919 -7.853)" fill="#3c3c3c"/>
    <path id="Контур_266" data-name="Контур 266" d="M375.679-147.69l-1.517-4.656L358.2-147.69Z" transform="translate(-6.193)" fill="#3c3c3c"/>
    <path id="Контур_267" data-name="Контур 267" d="M344.525-61.831l1.517,4.656,14.288-4.656Z" transform="translate(-3.927 -14.994)" fill="#3c3c3c"/>
    <path id="Контур_268" data-name="Контур 268" d="M329.228-137.868l-8.408,2.74,8.408,25.8Z" transform="translate(0 -2.398)" fill="#3c3c3c"/>
  </g>
</svg>
