<?xml version="1.0" encoding="utf-8"?>
<!-- Generator: Adobe Illustrator 25.4.1, SVG Export Plug-In . SVG Version: 6.00 Build 0)  -->
<svg version="1.1" id="Слой_1" xmlns="http://www.w3.org/2000/svg" xmlns:xlink="http://www.w3.org/1999/xlink" x="0px" y="0px"
	 viewBox="0 0 75.8 68.1" style="enable-background:new 0 0 75.8 68.1;" xml:space="preserve">
<style type="text/css">
	.st0{opacity:0.9;}
	.st1{fill:#3BAC92;}
</style>
<g id="Фото" transform="translate(-121.854 -92.678)" class="st0">
	<path id="Контур_271" class="st1" d="M173.3,102.9v-5.7c0-2.5-2-4.5-4.5-4.5h-17.9c-2.5,0-4.5,2-4.5,4.5v5.7L173.3,102.9z"/>
	<path id="Контур_272" class="st1" d="M185.9,107h-52.3c-6.5,0-11.7,5.3-11.8,11.8V149c0,6.5,5.3,11.7,11.8,11.8h52.3
		c6.5,0,11.7-5.3,11.8-11.8v-30.3C197.7,112.3,192.4,107,185.9,107z M159.8,151.3c-9.6,0-17.3-7.8-17.3-17.3s7.8-17.3,17.3-17.3
		c9.6,0,17.3,7.8,17.3,17.3S169.3,151.3,159.8,151.3L159.8,151.3z"/>
	<circle id="Эллипс_37" class="st1" cx="159.8" cy="134" r="12.2"/>
</g>
</svg>
