<svg xmlns="http://www.w3.org/2000/svg" width="75.847" height="68.092" viewBox="0 0 75.847 68.092">
  <g id="Фото" transform="translate(-121.854 -92.678)" opacity="0.9">
    <path id="Контур_271" data-name="Контур 271" d="M164.535,102.893V97.213A4.549,4.549,0,0,0,160,92.678H142.055a4.548,4.548,0,0,0-4.535,4.535v5.679Z" transform="translate(8.75 0)" fill="#3c3c3c"/>
    <path id="Контур_272" data-name="Контур 272" d="M185.95,101.863H133.605a11.786,11.786,0,0,0-11.751,11.751v30.274a11.786,11.786,0,0,0,11.751,11.751H185.95A11.786,11.786,0,0,0,197.7,143.889V113.614A11.786,11.786,0,0,0,185.95,101.863Zm-26.172,44.345A17.322,17.322,0,1,1,177.1,128.886,17.322,17.322,0,0,1,159.778,146.208Z" transform="translate(0 5.13)" fill="#3c3c3c"/>
    <circle id="Эллипс_37" data-name="Эллипс 37" cx="12.208" cy="12.208" r="12.208" transform="translate(147.569 121.807)" fill="#3c3c3c"/>
  </g>
</svg>
