<?xml version="1.0" encoding="utf-8"?>
<!-- Generator: Adobe Illustrator 25.4.1, SVG Export Plug-In . SVG Version: 6.00 Build 0)  -->
<svg version="1.1" id="Слой_1" xmlns="http://www.w3.org/2000/svg" xmlns:xlink="http://www.w3.org/1999/xlink" x="0px" y="0px"
	 viewBox="0 0 98.8 32" style="enable-background:new 0 0 98.8 32;" xml:space="preserve">
<style type="text/css">
	.st0{opacity:0.9;}
	.st1{fill:#3BAC92;}
</style>
<g id="Репортаж_-_иконка" transform="translate(0 -18.622)" class="st0">
	<path id="REC" class="st1" d="M29.9,32.9H32c1.6,0.1,3.2-0.2,4.6-1c1-0.8,1.6-2,1.5-3.3c0.1-1.3-0.5-2.5-1.5-3.2
		c-1.5-0.7-3.1-1-4.7-0.9h-2L29.9,32.9z M29.9,38.3v11.9h-6.6V19.1h9.1c4.2,0,7.4,0.8,9.4,2.3s3,3.9,3,7c0,1.7-0.5,3.5-1.5,4.9
		c-1.1,1.5-2.6,2.7-4.3,3.4c4.7,7,7.7,11.5,9.2,13.6h-7.3l-7.4-11.9L29.9,38.3z M70,50.2H52V19.1H70v5.4H58.6v6.8h10.5v5.4H58.6v8
		H70V50.2z M89.7,24.1c-2.3-0.1-4.4,1-5.8,2.8c-1.4,1.9-2,4.5-2,7.8c0,6.9,2.6,10.4,7.8,10.4c2.7-0.1,5.4-0.7,7.9-1.6V49
		c-2.7,1.1-5.6,1.6-8.6,1.6c-4.5,0-8-1.4-10.4-4.1c-2.4-2.7-3.6-6.7-3.6-11.8c-0.1-2.9,0.5-5.8,1.8-8.5c1.1-2.3,2.9-4.3,5.1-5.6
		c2.4-1.3,5-2,7.8-1.9c3.2,0,6.3,0.8,9.1,2.2l-2.1,5.4c-1.1-0.5-2.3-1-3.5-1.4C92,24.3,90.9,24.1,89.7,24.1z"/>
	<path id="Эллипс_31" class="st1" d="M8.2,26.2c4.5,0,8.2,3.7,8.2,8.2s-3.7,8.2-8.2,8.2S0,39,0,34.5c0,0,0,0,0,0
		C0,29.9,3.7,26.2,8.2,26.2z"/>
</g>
</svg>
