<?xml version="1.0" encoding="utf-8"?>
<!-- Generator: Adobe Illustrator 25.4.1, SVG Export Plug-In . SVG Version: 6.00 Build 0)  -->
<svg version="1.1" id="Слой_1" xmlns="http://www.w3.org/2000/svg" xmlns:xlink="http://www.w3.org/1999/xlink" x="0px" y="0px"
	 viewBox="0 0 75.5 75.5" style="enable-background:new 0 0 75.5 75.5;" xml:space="preserve">
<style type="text/css">
	.st0{opacity:0.9;}
	.st1{fill:#3BAC92;}
</style>
<g id="Дизайн_сингла" transform="translate(-18.834 148.913)" class="st0">
	<path id="Контур_256" class="st1" d="M50.2-127.2c-1.1,0.4-2,1.3-2.2,2.4l22.8-4.8l0-0.1c0-0.6-0.3-1.2-0.7-1.6
		c-0.2-0.2-0.5-0.3-0.8-0.3h0c-0.1,0-0.3,0-0.4,0L50.2-127.2z"/>
	<path id="Контур_257" class="st1" d="M73.5-100.3c0,3.6-2.9,6.4-6.4,6.4l0,0c-3.6,0-6.4-2.9-6.4-6.4c0-3.4,2.6-6.2,6-6.4v0
		h4.2v-20l-23,4.8v28.2c0,3.6-2.9,6.4-6.4,6.4l0,0c-3.6,0-6.4-2.9-6.4-6.4c0-3.4,2.6-6.2,6-6.4v0h0.4c0,0,0.1,0,0.1,0h0.5v0h3.3
		v-21.1l0,0l0-1.7v-0.5h0l0-0.3c-0.1-2.8,1.8-5.2,4.4-6l18.6-4.3c1.2-0.3,2.5,0,3.5,0.7c1.1,0.9,1.8,2.2,1.8,3.7l0,0.8h0v0.4l0,1.2
		l0,0V-100.3z"/>
	<path id="Контур_258" class="st1" d="M37.7-93.8c0,1,0.4,1.9,1.1,2.6c0.7,0.7,1.6,1.1,2.6,1.1l0,0c2,0,3.7-1.7,3.7-3.7v-3.7
		h-3.8C39.3-97.5,37.7-95.8,37.7-93.8z"/>
	<path id="Контур_259" class="st1" d="M63.4-100.3c0,2,1.7,3.7,3.7,3.7c2,0,3.7-1.7,3.7-3.7v-3.7h-3.7
		C65-104,63.4-102.3,63.4-100.3z"/>
	<path id="Контур_260" class="st1" d="M30.2-79.1c-1.7-0.2-3.5,0.5-4.7,1.7c-0.4,0.5-1.2,0.6-1.7,0.2c0,0,0,0,0,0
		c-0.8-0.6-0.3-1.5,0-1.9l0.2-0.3c1.1-2.2,1.2-4.7,0.3-7c-0.9-2.7-2.9-4.9-5.4-6.2v11.5c0,4.3,3.5,7.8,7.8,7.8h11
		C35.2-76.8,32.6-78.8,30.2-79.1z"/>
	<path id="Контур_261" class="st1" d="M88.5-86.6c-0.9,2.3-0.7,4.8,0.3,7l0.2,0.3c0.3,0.4,0.8,1.3,0,1.9
		c-0.5,0.4-1.3,0.3-1.7-0.2c0,0,0,0,0,0c-1.2-1.2-3-1.8-4.7-1.7c-2.4,0.3-5,2.3-7.5,5.7h11.4c4.3,0,7.8-3.5,7.8-7.8v-11.7
		C91.6-91.7,89.5-89.4,88.5-86.6z"/>
	<path id="Контур_262" class="st1" d="M24.2-135.1c0.9-2.3,0.7-4.8-0.3-7l-0.2-0.3c-0.3-0.4-0.8-1.3,0-1.9
		c0.5-0.4,1.3-0.3,1.7,0.2c0,0,0,0,0,0c1.2,1.2,3,1.8,4.7,1.7c2.5-0.3,5.3-2.5,8-6.4H26.7c-4.3,0-7.8,3.5-7.8,7.8v12.1
		C21.4-130.2,23.3-132.4,24.2-135.1z"/>
	<path id="Контур_263" class="st1" d="M82.6-142.6c1.7,0.2,3.5-0.5,4.7-1.7c0.4-0.5,1.2-0.6,1.7-0.2c0,0,0,0,0,0
		c0.8,0.6,0.3,1.5,0,1.9l-0.2,0.3c-1,2.2-1.2,4.7-0.3,7c1,2.8,3.1,5.1,5.8,6.3v-12.3c0-4.3-3.5-7.8-7.8-7.8H74.6
		C77.3-145.1,80.1-142.9,82.6-142.6z"/>
</g>
</svg>
