<?xml version="1.0" encoding="utf-8"?>
<!-- Generator: Adobe Illustrator 25.4.1, SVG Export Plug-In . SVG Version: 6.00 Build 0)  -->
<svg version="1.1" id="Слой_1" xmlns="http://www.w3.org/2000/svg" xmlns:xlink="http://www.w3.org/1999/xlink" x="0px" y="0px"
	 viewBox="0 0 71.8 71.8" style="enable-background:new 0 0 71.8 71.8;" xml:space="preserve">
<style type="text/css">
	.st0{opacity:0.9;fill:#39AD92;enable-background:new    ;}
</style>
<path id="Стикер" class="st0" d="M35.9,0C16.1,0,0,16.1,0,35.9s16.1,35.9,35.9,35.9s35.9-16.1,35.9-35.9l0,0
	C71.8,16.1,55.7,0,35.9,0z M40.5,20.2c0-1.1,0.8-2,1.9-2c1.1,0,2,0.8,2,1.9c0,0,0,0.1,0,0.1V32c0,1.1-0.8,2-1.9,2s-2-0.8-2-1.9
	c0,0,0-0.1,0-0.1V20.2z M27.4,20.2c0-1.1,0.8-2,1.9-2c1.1,0,2,0.8,2,1.9c0,0,0,0.1,0,0.1V32c0,1.1-0.9,1.9-2,1.9
	c-1,0-1.9-0.9-1.9-1.9V20.2z M49.6,45.7c-4,4.8-8.1,10.6-13.2,10.6c-0.2,0-0.3,0-0.5,0c-5.5-0.2-9.7-6.4-13.7-11.9
	c-0.6-0.9-1-1.8-0.6-2.2c0.9-0.6,2.1-0.4,2.7,0.4c3.3,4.5,7.4,7,11.7,7.1c4.1,0.1,8.2-2,11.6-6c0.7-0.8,1.9-0.9,2.8-0.2
	C50.7,44,50.3,44.9,49.6,45.7z"/>
</svg>
