<svg xmlns="http://www.w3.org/2000/svg" width="45.667" height="77.365" viewBox="0 0 45.667 77.365">
  <g id="Озвучка_-_иконка" data-name="Озвучка - иконка" transform="translate(318.504 220)" opacity="0.9">
    <path id="Вычитание_5" data-name="Вычитание 5" d="M15.168,58.035A15.168,15.168,0,0,1,0,42.867V37.811H12.295a1.35,1.35,0,0,0,0-2.7H0v-4.5H12.295a1.35,1.35,0,0,0,0-2.7H0v-4.5H12.295a1.35,1.35,0,0,0,0-2.7H0V15.167A15.167,15.167,0,0,1,25.892,4.442a15.068,15.068,0,0,1,4.442,10.725v27.7A15.167,15.167,0,0,1,15.168,58.035Z" transform="translate(-310.839 -220)" fill="#313131"/>
    <path id="Контур_141" data-name="Контур 141" d="M985.538,564.075a20.473,20.473,0,0,1-20.413,20.412h-1.831a20.473,20.473,0,0,1-20.413-20.412" transform="translate(-1259.88 -740.653)" fill="none" stroke="#313131" stroke-linecap="round" stroke-miterlimit="10" stroke-width="3"/>
    <line id="Линия_15" data-name="Линия 15" y2="11.496" transform="translate(-296.588 -155.631)" fill="none" stroke="#313131" stroke-linecap="round" stroke-miterlimit="10" stroke-width="3"/>
  </g>
</svg>
