<?xml version="1.0" encoding="utf-8"?>
<!-- Generator: Adobe Illustrator 25.4.1, SVG Export Plug-In . SVG Version: 6.00 Build 0)  -->
<svg version="1.1" id="Слой_1" xmlns="http://www.w3.org/2000/svg" xmlns:xlink="http://www.w3.org/1999/xlink" x="0px" y="0px"
	 viewBox="0 0 45.7 77.4" style="enable-background:new 0 0 45.7 77.4;" xml:space="preserve">
<style type="text/css">
	.st0{opacity:0.9;}
	.st1{fill:#3BAC92;}
	.st2{fill:none;stroke:#39AD92;stroke-width:3;stroke-linecap:round;stroke-miterlimit:10;}
</style>
<g id="Озвучка_-_иконка" transform="translate(318.504 220)" class="st0">
	<path id="Вычитание_5" class="st1" d="M-295.7-162c-8.4,0-15.2-6.8-15.2-15.2v-5.1h12.3c0.7,0,1.3-0.6,1.3-1.4
		c0-0.7-0.6-1.4-1.3-1.4h-12.3v-4.5h12.3c0.7,0,1.3-0.6,1.3-1.3s-0.6-1.4-1.3-1.4h-12.3v-4.5h12.3c0.7,0,1.3-0.6,1.3-1.3
		c0-0.7-0.6-1.4-1.3-1.4h-12.3v-5.5c0-8.4,6.8-15.2,15.2-15.2c4,0,7.9,1.6,10.7,4.4c2.9,2.8,4.5,6.7,4.4,10.7v27.7
		C-280.5-168.8-287.3-162-295.7-162z"/>
	<path id="Контур_141" class="st2" d="M-274.3-176.6c0,11.3-9.2,20.4-20.4,20.4h-1.8c-11.3,0-20.4-9.2-20.4-20.4"/>
	<line id="Линия_15" class="st2" x1="-296.6" y1="-155.6" x2="-296.6" y2="-144.1"/>
</g>
</svg>
