<?xml version="1.0" encoding="utf-8"?>
<!-- Generator: Adobe Illustrator 25.4.1, SVG Export Plug-In . SVG Version: 6.00 Build 0)  -->
<svg version="1.1" id="Слой_1" xmlns="http://www.w3.org/2000/svg" xmlns:xlink="http://www.w3.org/1999/xlink" x="0px" y="0px"
	 viewBox="0 0 67 80" style="enable-background:new 0 0 67 80;" xml:space="preserve">
<style type="text/css">
	.st0{fill:#96C45B;}
</style>
<g id="Слой_1_00000061439375780816183260000003251726780117081995_">
	<path id="Контур_302" class="st0" d="M9.1,80L9.1,80c-1.8-2.5-6.9-2.5-8.7,0l0,0V1.9l0,0c1.8-2.5,6.9-2.5,8.7,0l0,0V80z"/>
	<path id="Контур_303" class="st0" d="M11.8,1.9V80h54.8V1.9H11.8z M32.3,16.4h13.2c0.6,0.1,1.1,0.6,1,1.2c0,0.5-0.5,1-1,1
		H32.3c-0.6-0.1-1.1-0.6-1-1.2C31.3,16.8,31.8,16.4,32.3,16.4z M54.7,67.7H23.1v-12h31.6V67.7z M53.7,48.1H24.1
		c-0.6-0.1-1.1-0.6-1-1.2c0-0.5,0.5-1,1-1h29.6c0.6,0.1,1.1,0.6,1,1.2C54.6,47.6,54.2,48,53.7,48.1z M53.7,42.5H24.1
		c-0.6-0.1-1.1-0.6-1-1.2c0-0.5,0.5-1,1-1h29.6c0.6,0.1,1.1,0.6,1,1.2C54.6,42.1,54.2,42.5,53.7,42.5z M53.7,37H24.1
		c-0.6-0.1-1.1-0.6-1-1.2c0-0.5,0.5-1,1-1h29.6c0.6,0.1,1.1,0.6,1,1.2C54.6,36.5,54.2,36.9,53.7,37z M53.7,31.4H24.1
		c-0.6,0-1.1-0.5-1.1-1.1c0-0.6,0.5-1.1,1.1-1.1h29.6c0.6,0,1.1,0.5,1.1,1.1C54.8,31,54.3,31.4,53.7,31.4L53.7,31.4z M53.7,25.9
		H24.1c-0.6,0-1.1-0.5-1.1-1.1c0-0.6,0.5-1.1,1.1-1.1h29.6c0.6,0,1.1,0.5,1.1,1.1C54.8,25.4,54.3,25.9,53.7,25.9L53.7,25.9z"/>
</g>
</svg>
