<?xml version="1.0" encoding="utf-8"?>
<!-- Generator: Adobe Illustrator 25.4.1, SVG Export Plug-In . SVG Version: 6.00 Build 0)  -->
<svg version="1.1" id="Слой_1" xmlns="http://www.w3.org/2000/svg" xmlns:xlink="http://www.w3.org/1999/xlink" x="0px" y="0px"
	 viewBox="0 0 80 100" style="enable-background:new 0 0 80 100;" xml:space="preserve">
<style type="text/css">
	.st0{fill:#36A7B9;}
</style>
<g id="Слой_1_00000031909999299478189330000017456641800479839150_">
	<path id="Контур_284" class="st0" d="M5.2,0.4v99.3h70.6V0.4H5.2z M15.8,26.8H38v18.6H15.8L15.8,26.8z M36.7,88.1h-18
		c-0.9-0.2-1.4-1-1.3-1.9c0.1-0.6,0.6-1.1,1.3-1.3h18c0.9,0.1,1.5,0.9,1.4,1.8C38,87.4,37.4,88,36.7,88.1L36.7,88.1z M36.7,80.3h-18
		c-0.9-0.2-1.4-1-1.3-1.9c0.1-0.6,0.6-1.1,1.3-1.3h18c0.9,0.1,1.5,0.9,1.4,1.8C38,79.7,37.4,80.2,36.7,80.3L36.7,80.3z M36.7,72.6
		h-18c-0.9-0.2-1.4-1-1.3-1.9c0.1-0.6,0.6-1.1,1.3-1.3h18c0.9,0.1,1.5,0.9,1.4,1.8C38,71.9,37.4,72.5,36.7,72.6L36.7,72.6z
		 M36.7,64.8h-18c-0.9-0.2-1.4-1-1.3-1.9c0.1-0.6,0.6-1.1,1.3-1.3h18c0.9,0.1,1.5,0.9,1.4,1.8C38,64.2,37.4,64.7,36.7,64.8
		L36.7,64.8z M36.7,57.1h-18c-0.9-0.2-1.4-1-1.3-1.9c0.1-0.6,0.6-1.1,1.3-1.3h18c0.9,0.1,1.5,0.9,1.4,1.8C38,56.4,37.4,57,36.7,57.1
		L36.7,57.1z M64.7,88.1H42.5V53.9h22.1V88.1z M63.2,45.5H44c-0.9-0.1-1.5-0.9-1.4-1.8c0.1-0.7,0.7-1.2,1.4-1.4h19.2
		c0.9,0.1,1.5,0.9,1.4,1.8C64.5,44.8,63.9,45.4,63.2,45.5L63.2,45.5z M63.2,37.7H44c-0.9-0.1-1.5-0.9-1.4-1.8
		c0.1-0.7,0.7-1.2,1.4-1.4h19.2c0.9,0.1,1.5,0.9,1.4,1.8C64.5,37.1,63.9,37.6,63.2,37.7L63.2,37.7z M63.2,30H44
		c-0.9-0.1-1.5-0.9-1.4-1.8c0.1-0.7,0.7-1.2,1.4-1.4h19.2c0.9,0.1,1.5,0.9,1.4,1.8C64.5,29.4,63.9,29.9,63.2,30L63.2,30z M30.7,11.5
		c-1,0.1-1.3,0.3-1.3,1s0,1.1,0,2.5v6h-0.6l-6.4-7.8v3.7c0,0.8,0,1.6,0.1,2.4c0,0.8,0.4,1,1.5,1.1v0.4h-3.7v-0.4
		c0.9-0.1,1.3-0.3,1.3-1c0-0.5,0.1-1.1,0.1-2.5V13c0-0.4-0.1-0.7-0.3-1c-0.3-0.4-0.6-0.5-1.3-0.6v-0.4h2.2l6.4,7.5v-3.6
		c0-0.8,0-1.7-0.1-2.5c-0.1-0.4-0.4-0.9-1.6-1v-0.4h3.7L30.7,11.5z M39.1,20.8h-7.3v-0.4c1.4-0.1,1.5-0.2,1.5-1.5v-6
		c0-1.3-0.2-1.4-1.3-1.5v-0.4h6.7c0,0.4,0.1,1.5,0.1,2.3l-0.4,0.1c-0.1-0.4-0.2-0.7-0.4-1.1c-0.2-0.5-0.6-0.6-1.5-0.6H35
		c-0.5,0-0.5,0-0.5,0.5v3.3h1.7c1.1,0,1.2-0.2,1.4-1.2H38v3.1h-0.5c-0.2-1.1-0.3-1.2-1.4-1.2h-1.6v3c0,1,0.3,1.1,1.1,1.1H37
		c0.9,0,1.1-0.1,1.4-0.5c0.3-0.4,0.6-0.9,0.8-1.4l0.4,0.1C39.6,18.8,39.2,20.4,39.1,20.8L39.1,20.8z M54.2,11.5
		c-1.1,0.1-1.2,0.3-1.6,1.5c-0.5,1.5-1.7,5.3-2.5,8h-0.5c-0.8-2.3-1.8-5.2-2.6-7.5c-0.9,2.6-1.7,5.1-2.5,7.5H44
		c-0.7-2.6-1.6-5.4-2.4-8c-0.4-1.2-0.6-1.4-1.5-1.5v-0.4h3.7v0.4c-1.1,0.1-1.1,0.3-0.9,1c0.6,2,1.2,4,1.8,6.1c0.8-2.4,1.7-5,2.5-7.5
		h0.5c0.8,2.6,1.7,4.9,2.6,7.5c0.6-2,1.5-4.7,1.8-6c0.2-0.9,0.1-1.1-1.2-1.2v-0.4h3.4L54.2,11.5z M57.6,21.1c-0.8,0-1.6-0.2-2.3-0.5
		c-0.1-0.4-0.3-1.6-0.4-2.3l0.5-0.1c0.3,0.9,0.9,2.3,2.5,2.3c0.9,0.1,1.7-0.6,1.8-1.5c0-0.1,0-0.2,0-0.3c0-1.1-0.8-1.6-1.9-2.2
		c-1.1-0.6-2.5-1.3-2.5-3c0-1.5,1.2-2.7,2.7-2.6c0.1,0,0.2,0,0.3,0c0.7,0,1.4,0.1,2,0.3c0,0.7,0.1,1.4,0.2,2.2L60,13.4
		c-0.3-1-0.7-2-2-2c-0.8-0.1-1.5,0.5-1.6,1.3c0,0.1,0,0.2,0,0.3c0,1.1,0.7,1.6,1.9,2.2s2.6,1.3,2.6,3c-0.1,1.6-1.4,2.9-3.1,2.9
		C57.7,21.1,57.6,21.1,57.6,21.1L57.6,21.1z"/>
</g>
</svg>
